<svg data-v-423bf9ae="" xmlns="http://www.w3.org/2000/svg" viewBox="0 0 620 90" class="iconLeft"><!----><!----><!----><g data-v-423bf9ae="" id="a176afbe-6cf6-4d31-acd0-0224416562e7" fill="white" transform="matrix(4.491017818450928,0,0,4.491017818450928,93.459716796875,1.5269461870193481)"><path d="M7.88 5.50L7.88 5.50L7.88 5.50Q7.88 5.97 7.75 6.33L7.75 6.33L7.75 6.33Q7.62 6.69 7.38 6.95L7.38 6.95L7.38 6.95Q7.15 7.22 6.83 7.40L6.83 7.40L6.83 7.40Q6.51 7.58 6.15 7.70L6.15 7.70L6.15 7.76L6.15 7.76Q6.62 7.84 7.02 8.04L7.02 8.04L7.02 8.04Q7.42 8.24 7.70 8.56L7.70 8.56L7.70 8.56Q7.98 8.87 8.14 9.31L8.14 9.31L8.14 9.31Q8.30 9.74 8.30 10.29L8.30 10.29L8.30 10.29Q8.30 11.65 7.41 12.32L7.41 12.32L7.41 12.32Q6.52 13.00 4.70 13.00L4.70 13.00L0.53 13.00L0.53 12.41L0.71 12.41L0.71 12.41Q0.95 12.41 1.16 12.37L1.16 12.37L1.16 12.37Q1.37 12.34 1.52 12.23L1.52 12.23L1.52 12.23Q1.68 12.13 1.77 11.93L1.77 11.93L1.77 11.93Q1.86 11.73 1.86 11.40L1.86 11.40L1.86 4.54L1.86 4.54Q1.86 4.23 1.77 4.04L1.77 4.04L1.77 4.04Q1.67 3.86 1.52 3.75L1.52 3.75L1.52 3.75Q1.36 3.65 1.15 3.62L1.15 3.62L1.15 3.62Q0.94 3.59 0.71 3.59L0.71 3.59L0.53 3.59L0.53 3.00L4.29 3.00L4.29 3.00Q6.10 3.00 6.99 3.61L6.99 3.61L6.99 3.61Q7.88 4.21 7.88 5.50ZM3.27 8.11L3.27 12.30L4.63 12.30L4.63 12.30Q5.23 12.30 5.64 12.19L5.64 12.19L5.64 12.19Q6.05 12.08 6.31 11.84L6.31 11.84L6.31 11.84Q6.57 11.59 6.69 11.20L6.69 11.20L6.69 11.20Q6.80 10.81 6.80 10.25L6.80 10.25L6.80 10.25Q6.80 9.71 6.70 9.30L6.70 9.30L6.70 9.30Q6.60 8.90 6.35 8.63L6.35 8.63L6.35 8.63Q6.10 8.37 5.69 8.24L5.69 8.24L5.69 8.24Q5.28 8.11 4.66 8.11L4.66 8.11L3.27 8.11ZM3.27 3.70L3.27 7.41L4.25 7.41L4.25 7.41Q4.86 7.41 5.27 7.30L5.27 7.30L5.27 7.30Q5.68 7.19 5.93 6.96L5.93 6.96L5.93 6.96Q6.17 6.73 6.28 6.37L6.28 6.37L6.28 6.37Q6.38 6.01 6.38 5.50L6.38 5.50L6.38 5.50Q6.38 4.99 6.27 4.65L6.27 4.65L6.27 4.65Q6.15 4.30 5.89 4.09L5.89 4.09L5.89 4.09Q5.63 3.88 5.22 3.79L5.22 3.79L5.22 3.79Q4.81 3.70 4.21 3.70L4.21 3.70L3.27 3.70ZM13.66 12.41L13.66 13.00L9.62 13.00L9.62 12.41L9.66 12.41L9.66 12.41Q9.90 12.41 10.11 12.37L10.11 12.37L10.11 12.37Q10.32 12.34 10.47 12.23L10.47 12.23L10.47 12.23Q10.62 12.13 10.72 11.93L10.72 11.93L10.72 11.93Q10.81 11.73 10.81 11.40L10.81 11.40L10.81 7.03L10.81 7.03Q10.81 6.73 10.72 6.54L10.72 6.54L10.72 6.54Q10.62 6.35 10.47 6.25L10.47 6.25L10.47 6.25Q10.31 6.15 10.10 6.11L10.10 6.11L10.10 6.11Q9.89 6.08 9.66 6.08L9.66 6.08L9.62 6.08L9.62 5.49L11.77 5.49L12.04 6.88L12.11 6.88L12.11 6.88Q12.24 6.56 12.39 6.29L12.39 6.29L12.39 6.29Q12.53 6.01 12.74 5.80L12.74 5.80L12.74 5.80Q12.95 5.59 13.25 5.47L13.25 5.47L13.25 5.47Q13.56 5.35 14.03 5.35L14.03 5.35L14.03 5.35Q14.79 5.35 15.17 5.62L15.17 5.62L15.17 5.62Q15.54 5.89 15.54 6.37L15.54 6.37L15.54 6.37Q15.54 6.59 15.47 6.77L15.47 6.77L15.47 6.77Q15.39 6.96 15.24 7.09L15.24 7.09L15.24 7.09Q15.08 7.23 14.83 7.30L14.83 7.30L14.83 7.30Q14.59 7.37 14.23 7.37L14.23 7.37L14.23 7.37Q14.23 6.79 14.07 6.53L14.07 6.53L14.07 6.53Q13.90 6.28 13.49 6.28L13.49 6.28L13.49 6.28Q13.23 6.28 13.03 6.42L13.03 6.42L13.03 6.42Q12.82 6.57 12.67 6.81L12.67 6.81L12.67 6.81Q12.52 7.05 12.41 7.37L12.41 7.37L12.41 7.37Q12.30 7.68 12.24 8.02L12.24 8.02L12.24 8.02Q12.17 8.35 12.15 8.67L12.15 8.67L12.15 8.67Q12.12 9.00 12.12 9.27L12.12 9.27L12.12 11.47L12.12 11.47Q12.12 11.78 12.21 11.97L12.21 11.97L12.21 11.97Q12.30 12.15 12.46 12.25L12.46 12.25L12.46 12.25Q12.62 12.35 12.83 12.38L12.83 12.38L12.83 12.38Q13.04 12.41 13.27 12.41L13.27 12.41L13.66 12.41ZM19.60 6.10L19.60 6.10L19.60 6.10Q18.82 6.10 18.40 6.74L18.40 6.74L18.40 6.74Q17.98 7.37 17.90 8.59L17.90 8.59L21.12 8.59L21.12 8.59Q21.12 8.03 21.04 7.57L21.04 7.57L21.04 7.57Q20.96 7.12 20.78 6.79L20.78 6.79L20.78 6.79Q20.60 6.46 20.31 6.28L20.31 6.28L20.31 6.28Q20.02 6.10 19.60 6.10ZM19.77 13.13L19.77 13.13L19.77 13.13Q19.01 13.13 18.41 12.88L18.41 12.88L18.41 12.88Q17.80 12.62 17.38 12.13L17.38 12.13L17.38 12.13Q16.97 11.63 16.74 10.92L16.74 10.92L16.74 10.92Q16.52 10.21 16.52 9.30L16.52 9.30L16.52 9.30Q16.52 7.33 17.33 6.34L17.33 6.34L17.33 6.34Q18.14 5.35 19.63 5.35L19.63 5.35L19.63 5.35Q20.30 5.35 20.84 5.56L20.84 5.56L20.84 5.56Q21.38 5.78 21.76 6.20L21.76 6.20L21.76 6.20Q22.13 6.62 22.34 7.24L22.34 7.24L22.34 7.24Q22.54 7.87 22.54 8.70L22.54 8.70L22.54 9.34L17.88 9.34L17.88 9.34Q17.89 10.10 18.03 10.65L18.03 10.65L18.03 10.65Q18.17 11.20 18.43 11.56L18.43 11.56L18.43 11.56Q18.70 11.92 19.08 12.08L19.08 12.08L19.08 12.08Q19.46 12.25 19.96 12.25L19.96 12.25L19.96 12.25Q20.32 12.25 20.63 12.17L20.63 12.17L20.63 12.17Q20.95 12.09 21.20 11.95L21.20 11.95L21.20 11.95Q21.45 11.81 21.65 11.64L21.65 11.64L21.65 11.64Q21.84 11.46 21.96 11.27L21.96 11.27L21.96 11.27Q22.06 11.31 22.15 11.44L22.15 11.44L22.15 11.44Q22.23 11.57 22.23 11.75L22.23 11.75L22.23 11.75Q22.23 11.96 22.08 12.21L22.08 12.21L22.08 12.21Q21.93 12.45 21.62 12.65L21.62 12.65L21.62 12.65Q21.31 12.86 20.85 13.00L20.85 13.00L20.85 13.00Q20.39 13.13 19.77 13.13ZM29.03 5.53L29.91 5.53L31.31 9.68L31.31 9.68Q31.39 9.93 31.48 10.22L31.48 10.22L31.48 10.22Q31.58 10.51 31.66 10.80L31.66 10.80L31.66 10.80Q31.74 11.08 31.81 11.33L31.81 11.33L31.81 11.33Q31.88 11.59 31.91 11.76L31.91 11.76L31.95 11.76L31.95 11.76Q32.01 11.42 32.15 10.91L32.15 10.91L32.15 10.91Q32.29 10.40 32.50 9.72L32.50 9.72L33.20 7.46L33.20 7.46Q33.25 7.29 33.29 7.09L33.29 7.09L33.29 7.09Q33.33 6.88 33.33 6.77L33.33 6.77L33.33 6.77Q33.33 6.41 33.10 6.24L33.10 6.24L33.10 6.24Q32.87 6.08 32.40 6.08L32.40 6.08L32.30 6.08L32.30 5.49L35.29 5.49L35.29 6.08L35.12 6.08L35.12 6.08Q34.91 6.08 34.76 6.12L34.76 6.12L34.76 6.12Q34.61 6.16 34.49 6.28L34.49 6.28L34.49 6.28Q34.37 6.40 34.27 6.61L34.27 6.61L34.27 6.61Q34.17 6.82 34.06 7.17L34.06 7.17L32.26 13.00L31.14 13.00L29.47 8.07L29.22 7.14L27.23 13.00L26.13 13.00L24.29 6.82L24.29 6.82Q24.21 6.60 24.12 6.46L24.12 6.46L24.12 6.46Q24.04 6.32 23.92 6.23L23.92 6.23L23.92 6.23Q23.80 6.15 23.65 6.11L23.65 6.11L23.65 6.11Q23.50 6.08 23.30 6.08L23.30 6.08L23.26 6.08L23.26 5.49L26.71 5.49L26.71 6.08L26.53 6.08L26.53 6.08Q26.11 6.08 25.90 6.20L25.90 6.20L25.90 6.20Q25.69 6.32 25.69 6.67L25.69 6.67L25.69 6.67Q25.69 6.78 25.73 6.95L25.73 6.95L25.73 6.95Q25.76 7.11 25.81 7.27L25.81 7.27L26.46 9.62L26.46 9.62Q26.53 9.87 26.61 10.17L26.61 10.17L26.61 10.17Q26.68 10.47 26.75 10.77L26.75 10.77L26.75 10.77Q26.81 11.07 26.87 11.33L26.87 11.33L26.87 11.33Q26.92 11.59 26.95 11.76L26.95 11.76L27.00 11.76L27.00 11.76Q27.03 11.59 27.09 11.35L27.09 11.35L27.09 11.35Q27.15 11.12 27.22 10.85L27.22 10.85L27.22 10.85Q27.30 10.58 27.39 10.29L27.39 10.29L27.39 10.29Q27.48 10.01 27.57 9.76L27.57 9.76L29.03 5.53ZM39.16 6.10L39.16 6.10L39.16 6.10Q38.38 6.10 37.96 6.74L37.96 6.74L37.96 6.74Q37.54 7.37 37.46 8.59L37.46 8.59L40.68 8.59L40.68 8.59Q40.68 8.03 40.60 7.57L40.60 7.57L40.60 7.57Q40.52 7.12 40.34 6.79L40.34 6.79L40.34 6.79Q40.16 6.46 39.87 6.28L39.87 6.28L39.87 6.28Q39.58 6.10 39.16 6.10ZM39.33 13.13L39.33 13.13L39.33 13.13Q38.57 13.13 37.96 12.88L37.96 12.88L37.96 12.88Q37.36 12.62 36.94 12.13L36.94 12.13L36.94 12.13Q36.52 11.63 36.30 10.92L36.30 10.92L36.30 10.92Q36.08 10.21 36.08 9.30L36.08 9.30L36.08 9.30Q36.08 7.33 36.89 6.34L36.89 6.34L36.89 6.34Q37.69 5.35 39.18 5.35L39.18 5.35L39.18 5.35Q39.86 5.35 40.40 5.56L40.40 5.56L40.40 5.56Q40.94 5.78 41.32 6.20L41.32 6.20L41.32 6.20Q41.69 6.62 41.89 7.24L41.89 7.24L41.89 7.24Q42.10 7.87 42.10 8.70L42.10 8.70L42.10 9.34L37.43 9.34L37.43 9.34Q37.45 10.10 37.59 10.65L37.59 10.65L37.59 10.65Q37.73 11.20 37.99 11.56L37.99 11.56L37.99 11.56Q38.25 11.92 38.64 12.08L38.64 12.08L38.64 12.08Q39.02 12.25 39.52 12.25L39.52 12.25L39.52 12.25Q39.88 12.25 40.19 12.17L40.19 12.17L40.19 12.17Q40.50 12.09 40.76 11.95L40.76 11.95L40.76 11.95Q41.01 11.81 41.20 11.64L41.20 11.64L41.20 11.64Q41.40 11.46 41.52 11.27L41.52 11.27L41.52 11.27Q41.62 11.31 41.70 11.44L41.70 11.44L41.70 11.44Q41.79 11.57 41.79 11.75L41.79 11.75L41.79 11.75Q41.79 11.96 41.64 12.21L41.64 12.21L41.64 12.21Q41.49 12.45 41.18 12.65L41.18 12.65L41.18 12.65Q40.87 12.86 40.41 13.00L40.41 13.00L40.41 13.00Q39.95 13.13 39.33 13.13ZM47.30 12.41L47.30 13.00L43.26 13.00L43.26 12.41L43.31 12.41L43.31 12.41Q43.54 12.41 43.75 12.37L43.75 12.37L43.75 12.37Q43.96 12.34 44.12 12.23L44.12 12.23L44.12 12.23Q44.27 12.13 44.36 11.93L44.36 11.93L44.36 11.93Q44.45 11.73 44.45 11.40L44.45 11.40L44.45 7.03L44.45 7.03Q44.45 6.73 44.36 6.54L44.36 6.54L44.36 6.54Q44.27 6.35 44.11 6.25L44.11 6.25L44.11 6.25Q43.96 6.15 43.75 6.11L43.75 6.11L43.75 6.11Q43.54 6.08 43.31 6.08L43.31 6.08L43.26 6.08L43.26 5.49L45.42 5.49L45.68 6.88L45.75 6.88L45.75 6.88Q45.89 6.56 46.03 6.29L46.03 6.29L46.03 6.29Q46.18 6.01 46.39 5.80L46.39 5.80L46.39 5.80Q46.59 5.59 46.90 5.47L46.90 5.47L46.90 5.47Q47.21 5.35 47.67 5.35L47.67 5.35L47.67 5.35Q48.44 5.35 48.81 5.62L48.81 5.62L48.81 5.62Q49.18 5.89 49.18 6.37L49.18 6.37L49.18 6.37Q49.18 6.59 49.11 6.77L49.11 6.77L49.11 6.77Q49.04 6.96 48.88 7.09L48.88 7.09L48.88 7.09Q48.73 7.23 48.48 7.30L48.48 7.30L48.48 7.30Q48.23 7.37 47.88 7.37L47.88 7.37L47.88 7.37Q47.88 6.79 47.71 6.53L47.71 6.53L47.71 6.53Q47.55 6.28 47.14 6.28L47.14 6.28L47.14 6.28Q46.88 6.28 46.68 6.42L46.68 6.42L46.68 6.42Q46.47 6.57 46.32 6.81L46.32 6.81L46.32 6.81Q46.16 7.05 46.06 7.37L46.06 7.37L46.06 7.37Q45.95 7.68 45.89 8.02L45.89 8.02L45.89 8.02Q45.82 8.35 45.79 8.67L45.79 8.67L45.79 8.67Q45.77 9.00 45.77 9.27L45.77 9.27L45.77 11.47L45.77 11.47Q45.77 11.78 45.86 11.97L45.86 11.97L45.86 11.97Q45.95 12.15 46.11 12.25L46.11 12.25L46.11 12.25Q46.27 12.35 46.47 12.38L46.47 12.38L46.47 12.38Q46.68 12.41 46.92 12.41L46.92 12.41L47.30 12.41ZM54.39 5.49L57.31 5.49L57.31 6.08L57.26 6.08L57.26 6.08Q57.06 6.08 56.91 6.12L56.91 6.12L56.91 6.12Q56.77 6.17 56.65 6.29L56.65 6.29L56.65 6.29Q56.53 6.41 56.42 6.62L56.42 6.62L56.42 6.62Q56.32 6.84 56.20 7.17L56.20 7.17L54.07 13.05L54.07 13.05Q53.83 13.73 53.61 14.24L53.61 14.24L53.61 14.24Q53.39 14.75 53.15 15.12L53.15 15.12L53.15 15.12Q52.91 15.48 52.63 15.72L52.63 15.72L52.63 15.72Q52.34 15.96 51.98 16.11L51.98 16.11L51.98 16.11Q51.62 16.25 51.15 16.30L51.15 16.30L51.15 16.30Q50.67 16.36 50.05 16.36L50.05 16.36L49.93 16.36L49.93 15.70L49.93 15.70Q50.64 15.70 51.15 15.48L51.15 15.48L51.15 15.48Q51.67 15.27 52.04 14.90L52.04 14.90L52.04 14.90Q52.41 14.53 52.66 14.03L52.66 14.03L52.66 14.03Q52.91 13.53 53.08 12.94L53.08 12.94L50.49 6.82L50.49 6.82Q50.39 6.60 50.31 6.46L50.31 6.46L50.31 6.46Q50.22 6.32 50.10 6.23L50.10 6.23L50.10 6.23Q49.99 6.15 49.84 6.11L49.84 6.11L49.84 6.11Q49.70 6.08 49.49 6.08L49.49 6.08L49.45 6.08L49.45 5.49L52.81 5.49L52.81 6.08L52.77 6.08L52.77 6.08Q52.35 6.08 52.14 6.24L52.14 6.24L52.14 6.24Q51.93 6.41 51.93 6.75L51.93 6.75L51.93 6.75Q51.93 6.87 51.96 6.99L51.96 6.99L51.96 6.99Q51.98 7.11 52.04 7.27L52.04 7.27L53.07 9.76L53.07 9.76Q53.16 10.00 53.27 10.28L53.27 10.28L53.27 10.28Q53.38 10.57 53.47 10.85L53.47 10.85L53.47 10.85Q53.56 11.12 53.63 11.37L53.63 11.37L53.63 11.37Q53.71 11.61 53.74 11.79L53.74 11.79L53.78 11.79L53.78 11.79Q53.85 11.48 53.99 11.04L53.99 11.04L53.99 11.04Q54.12 10.60 54.30 10.10L54.30 10.10L55.23 7.37L55.23 7.37Q55.30 7.20 55.33 7.04L55.33 7.04L55.33 7.04Q55.36 6.88 55.36 6.77L55.36 6.77L55.36 6.77Q55.36 6.41 55.13 6.24L55.13 6.24L55.13 6.24Q54.90 6.08 54.43 6.08L54.43 6.08L54.39 6.08L54.39 5.49ZM68.82 5.50L68.82 5.50L68.82 5.50Q68.82 5.97 68.69 6.33L68.69 6.33L68.69 6.33Q68.56 6.69 68.33 6.95L68.33 6.95L68.33 6.95Q68.09 7.22 67.77 7.40L67.77 7.40L67.77 7.40Q67.46 7.58 67.09 7.70L67.09 7.70L67.09 7.76L67.09 7.76Q67.57 7.84 67.96 8.04L67.96 8.04L67.96 8.04Q68.36 8.24 68.64 8.56L68.64 8.56L68.64 8.56Q68.93 8.87 69.08 9.31L69.08 9.31L69.08 9.31Q69.24 9.74 69.24 10.29L69.24 10.29L69.24 10.29Q69.24 11.65 68.35 12.32L68.35 12.32L68.35 12.32Q67.46 13.00 65.65 13.00L65.65 13.00L61.48 13.00L61.48 12.41L61.65 12.41L61.65 12.41Q61.89 12.41 62.10 12.37L62.10 12.37L62.10 12.37Q62.31 12.34 62.47 12.23L62.47 12.23L62.47 12.23Q62.62 12.13 62.71 11.93L62.71 11.93L62.71 11.93Q62.80 11.73 62.80 11.40L62.80 11.40L62.80 4.54L62.80 4.54Q62.80 4.23 62.71 4.04L62.71 4.04L62.71 4.04Q62.62 3.86 62.46 3.75L62.46 3.75L62.46 3.75Q62.30 3.65 62.09 3.62L62.09 3.62L62.09 3.62Q61.89 3.59 61.65 3.59L61.65 3.59L61.48 3.59L61.48 3.00L65.23 3.00L65.23 3.00Q67.05 3.00 67.94 3.61L67.94 3.61L67.94 3.61Q68.82 4.21 68.82 5.50ZM64.22 8.11L64.22 12.30L65.58 12.30L65.58 12.30Q66.17 12.30 66.58 12.19L66.58 12.19L66.58 12.19Q66.99 12.08 67.25 11.84L67.25 11.84L67.25 11.84Q67.51 11.59 67.63 11.20L67.63 11.20L67.63 11.20Q67.74 10.81 67.74 10.25L67.74 10.25L67.74 10.25Q67.74 9.71 67.64 9.30L67.64 9.30L67.64 9.30Q67.54 8.90 67.29 8.63L67.29 8.63L67.29 8.63Q67.04 8.37 66.63 8.24L66.63 8.24L66.63 8.24Q66.22 8.11 65.60 8.11L65.60 8.11L64.22 8.11ZM64.22 3.70L64.22 7.41L65.19 7.41L65.19 7.41Q65.80 7.41 66.21 7.30L66.21 7.30L66.21 7.30Q66.62 7.19 66.87 6.96L66.87 6.96L66.87 6.96Q67.12 6.73 67.22 6.37L67.22 6.37L67.22 6.37Q67.33 6.01 67.33 5.50L67.33 5.50L67.33 5.50Q67.33 4.99 67.21 4.65L67.21 4.65L67.21 4.65Q67.09 4.30 66.83 4.09L66.83 4.09L66.83 4.09Q66.58 3.88 66.16 3.79L66.16 3.79L66.16 3.79Q65.75 3.70 65.15 3.70L65.15 3.70L64.22 3.70ZM74.60 12.41L74.60 13.00L70.56 13.00L70.56 12.41L70.60 12.41L70.60 12.41Q70.84 12.41 71.05 12.37L71.05 12.37L71.05 12.37Q71.26 12.34 71.41 12.23L71.41 12.23L71.41 12.23Q71.57 12.13 71.66 11.93L71.66 11.93L71.66 11.93Q71.75 11.73 71.75 11.40L71.75 11.40L71.75 7.03L71.75 7.03Q71.75 6.73 71.66 6.54L71.66 6.54L71.66 6.54Q71.57 6.35 71.41 6.25L71.41 6.25L71.41 6.25Q71.25 6.15 71.04 6.11L71.04 6.11L71.04 6.11Q70.83 6.08 70.60 6.08L70.60 6.08L70.56 6.08L70.56 5.49L72.71 5.49L72.98 6.88L73.05 6.88L73.05 6.88Q73.19 6.56 73.33 6.29L73.33 6.29L73.33 6.29Q73.47 6.01 73.68 5.80L73.68 5.80L73.68 5.80Q73.89 5.59 74.20 5.47L74.20 5.47L74.20 5.47Q74.50 5.35 74.97 5.35L74.97 5.35L74.97 5.35Q75.74 5.35 76.11 5.62L76.11 5.62L76.11 5.62Q76.48 5.89 76.48 6.37L76.48 6.37L76.48 6.37Q76.48 6.59 76.41 6.77L76.41 6.77L76.41 6.77Q76.34 6.96 76.18 7.09L76.18 7.09L76.18 7.09Q76.02 7.23 75.78 7.30L75.78 7.30L75.78 7.30Q75.53 7.37 75.17 7.37L75.17 7.37L75.17 7.37Q75.17 6.79 75.01 6.53L75.01 6.53L75.01 6.53Q74.85 6.28 74.44 6.28L74.44 6.28L74.44 6.28Q74.18 6.28 73.97 6.42L73.97 6.42L73.97 6.42Q73.77 6.57 73.61 6.81L73.61 6.81L73.61 6.81Q73.46 7.05 73.35 7.37L73.35 7.37L73.35 7.37Q73.25 7.68 73.18 8.02L73.18 8.02L73.18 8.02Q73.12 8.35 73.09 8.67L73.09 8.67L73.09 8.67Q73.06 9.00 73.06 9.27L73.06 9.27L73.06 11.47L73.06 11.47Q73.06 11.78 73.15 11.97L73.15 11.97L73.15 11.97Q73.25 12.15 73.40 12.25L73.40 12.25L73.40 12.25Q73.56 12.35 73.77 12.38L73.77 12.38L73.77 12.38Q73.98 12.41 74.21 12.41L74.21 12.41L74.60 12.41ZM84 9.23L84 9.23L84 9.23Q84 11.20 83.16 12.17L83.16 12.17L83.16 12.17Q82.33 13.13 80.71 13.13L80.71 13.13L80.71 13.13Q79.95 13.13 79.35 12.89L79.35 12.89L79.35 12.89Q78.75 12.65 78.33 12.17L78.33 12.17L78.33 12.17Q77.91 11.68 77.69 10.95L77.69 10.95L77.69 10.95Q77.46 10.21 77.46 9.23L77.46 9.23L77.46 9.23Q77.46 7.27 78.30 6.31L78.30 6.31L78.30 6.31Q79.13 5.35 80.75 5.35L80.75 5.35L80.75 5.35Q81.51 5.35 82.11 5.59L82.11 5.59L82.11 5.59Q82.71 5.82 83.14 6.31L83.14 6.31L83.14 6.31Q83.56 6.79 83.78 7.52L83.78 7.52L83.78 7.52Q84 8.24 84 9.23ZM78.82 9.23L78.82 9.23L78.82 9.23Q78.82 10.01 78.92 10.60L78.92 10.60L78.92 10.60Q79.02 11.20 79.25 11.60L79.25 11.60L79.25 11.60Q79.48 12.00 79.85 12.20L79.85 12.20L79.85 12.20Q80.21 12.41 80.74 12.41L80.74 12.41L80.74 12.41Q81.27 12.41 81.63 12.20L81.63 12.20L81.63 12.20Q81.99 12.00 82.22 11.60L82.22 11.60L82.22 11.60Q82.44 11.20 82.54 10.60L82.54 10.60L82.54 10.60Q82.64 10.01 82.64 9.23L82.64 9.23L82.64 9.23Q82.64 8.45 82.54 7.86L82.54 7.86L82.54 7.86Q82.43 7.27 82.21 6.88L82.21 6.88L82.21 6.88Q81.98 6.49 81.62 6.29L81.62 6.29L81.62 6.29Q81.25 6.09 80.73 6.09L80.73 6.09L80.73 6.09Q80.20 6.09 79.84 6.29L79.84 6.29L79.84 6.29Q79.47 6.49 79.25 6.88L79.25 6.88L79.25 6.88Q79.02 7.27 78.92 7.86L78.92 7.86L78.92 7.86Q78.82 8.45 78.82 9.23ZM90.56 5.53L91.44 5.53L92.84 9.68L92.84 9.68Q92.92 9.93 93.01 10.22L93.01 10.22L93.01 10.22Q93.11 10.51 93.19 10.80L93.19 10.80L93.19 10.80Q93.27 11.08 93.34 11.33L93.34 11.33L93.34 11.33Q93.41 11.59 93.44 11.76L93.44 11.76L93.48 11.76L93.48 11.76Q93.54 11.42 93.68 10.91L93.68 10.91L93.68 10.91Q93.82 10.40 94.03 9.72L94.03 9.72L94.73 7.46L94.73 7.46Q94.78 7.29 94.82 7.09L94.82 7.09L94.82 7.09Q94.86 6.88 94.86 6.77L94.86 6.77L94.86 6.77Q94.86 6.41 94.63 6.24L94.63 6.24L94.63 6.24Q94.40 6.08 93.93 6.08L93.93 6.08L93.83 6.08L93.83 5.49L96.82 5.49L96.82 6.08L96.65 6.08L96.65 6.08Q96.44 6.08 96.29 6.12L96.29 6.12L96.29 6.12Q96.14 6.16 96.02 6.28L96.02 6.28L96.02 6.28Q95.90 6.40 95.80 6.61L95.80 6.61L95.80 6.61Q95.70 6.82 95.59 7.17L95.59 7.17L93.79 13.00L92.67 13.00L91 8.07L90.75 7.14L88.76 13.00L87.66 13.00L85.83 6.82L85.83 6.82Q85.74 6.60 85.65 6.46L85.65 6.46L85.65 6.46Q85.57 6.32 85.45 6.23L85.45 6.23L85.45 6.23Q85.33 6.15 85.18 6.11L85.18 6.11L85.18 6.11Q85.03 6.08 84.83 6.08L84.83 6.08L84.79 6.08L84.79 5.49L88.25 5.49L88.25 6.08L88.06 6.08L88.06 6.08Q87.64 6.08 87.43 6.20L87.43 6.20L87.43 6.20Q87.22 6.32 87.22 6.67L87.22 6.67L87.22 6.67Q87.22 6.78 87.26 6.95L87.26 6.95L87.26 6.95Q87.29 7.11 87.34 7.27L87.34 7.27L87.99 9.62L87.99 9.62Q88.06 9.87 88.14 10.17L88.14 10.17L88.14 10.17Q88.21 10.47 88.28 10.77L88.28 10.77L88.28 10.77Q88.34 11.07 88.40 11.33L88.40 11.33L88.40 11.33Q88.45 11.59 88.48 11.76L88.48 11.76L88.53 11.76L88.53 11.76Q88.56 11.59 88.62 11.35L88.62 11.35L88.62 11.35Q88.68 11.12 88.75 10.85L88.75 10.85L88.75 10.85Q88.83 10.58 88.92 10.29L88.92 10.29L88.92 10.29Q89.01 10.01 89.10 9.76L89.10 9.76L90.56 5.53ZM99.78 13.13L99.78 13.13L99.78 13.13Q99.25 13.13 98.82 13.04L98.82 13.04L98.82 13.04Q98.40 12.95 98.10 12.76L98.10 12.76L98.10 12.76Q97.79 12.57 97.63 12.29L97.63 12.29L97.63 12.29Q97.47 12.02 97.47 11.65L97.47 11.65L97.47 11.65Q97.47 11.37 97.56 11.18L97.56 11.18L97.56 11.18Q97.65 10.99 97.78 10.88L97.78 10.88L97.78 10.88Q97.92 10.77 98.07 10.73L98.07 10.73L98.07 10.73Q98.23 10.68 98.35 10.68L98.35 10.68L98.35 10.68Q98.35 11.05 98.42 11.38L98.42 11.38L98.42 11.38Q98.50 11.70 98.68 11.94L98.68 11.94L98.68 11.94Q98.85 12.18 99.15 12.32L99.15 12.32L99.15 12.32Q99.44 12.46 99.86 12.46L99.86 12.46L99.86 12.46Q100.24 12.46 100.52 12.37L100.52 12.37L100.52 12.37Q100.81 12.28 101.00 12.11L101.00 12.11L101.00 12.11Q101.20 11.94 101.30 11.71L101.30 11.71L101.30 11.71Q101.40 11.47 101.40 11.19L101.40 11.19L101.40 11.19Q101.40 10.93 101.33 10.74L101.33 10.74L101.33 10.74Q101.25 10.55 101.05 10.39L101.05 10.39L101.05 10.39Q100.86 10.23 100.52 10.06L100.52 10.06L100.52 10.06Q100.19 9.88 99.68 9.67L99.68 9.67L99.68 9.67Q99.14 9.43 98.74 9.20L98.74 9.20L98.74 9.20Q98.34 8.98 98.08 8.72L98.08 8.72L98.08 8.72Q97.82 8.46 97.69 8.13L97.69 8.13L97.69 8.13Q97.56 7.80 97.56 7.34L97.56 7.34L97.56 7.34Q97.56 6.86 97.75 6.49L97.75 6.49L97.75 6.49Q97.94 6.13 98.29 5.88L98.29 5.88L98.29 5.88Q98.64 5.63 99.12 5.50L99.12 5.50L99.12 5.50Q99.61 5.37 100.20 5.37L100.20 5.37L100.20 5.37Q100.70 5.37 101.08 5.47L101.08 5.47L101.08 5.47Q101.47 5.57 101.73 5.75L101.73 5.75L101.73 5.75Q101.99 5.92 102.12 6.16L102.12 6.16L102.12 6.16Q102.25 6.39 102.25 6.65L102.25 6.65L102.25 6.65Q102.25 7.03 101.98 7.26L101.98 7.26L101.98 7.26Q101.72 7.49 101.23 7.49L101.23 7.49L101.23 7.49Q101.23 6.79 100.94 6.40L100.94 6.40L100.94 6.40Q100.65 6.01 100.03 6.01L100.03 6.01L100.03 6.01Q99.67 6.01 99.42 6.09L99.42 6.09L99.42 6.09Q99.17 6.17 99.01 6.32L99.01 6.32L99.01 6.32Q98.85 6.47 98.77 6.68L98.77 6.68L98.77 6.68Q98.70 6.88 98.70 7.13L98.70 7.13L98.70 7.13Q98.70 7.40 98.79 7.59L98.79 7.59L98.79 7.59Q98.89 7.79 99.10 7.95L99.10 7.95L99.10 7.95Q99.31 8.11 99.64 8.27L99.64 8.27L99.64 8.27Q99.97 8.42 100.43 8.61L100.43 8.61L100.43 8.61Q100.99 8.85 101.38 9.07L101.38 9.07L101.38 9.07Q101.78 9.30 102.04 9.56L102.04 9.56L102.04 9.56Q102.29 9.83 102.42 10.17L102.42 10.17L102.42 10.17Q102.54 10.50 102.54 10.94L102.54 10.94L102.54 10.94Q102.54 11.48 102.34 11.89L102.34 11.89L102.34 11.89Q102.14 12.30 101.78 12.58L101.78 12.58L101.78 12.58Q101.42 12.86 100.91 13.00L100.91 13.00L100.91 13.00Q100.40 13.13 99.78 13.13ZM107.00 6.10L107.00 6.10L107.00 6.10Q106.22 6.10 105.80 6.74L105.80 6.74L105.80 6.74Q105.38 7.37 105.31 8.59L105.31 8.59L108.53 8.59L108.53 8.59Q108.53 8.03 108.45 7.57L108.45 7.57L108.45 7.57Q108.36 7.12 108.19 6.79L108.19 6.79L108.19 6.79Q108.01 6.46 107.72 6.28L107.72 6.28L107.72 6.28Q107.43 6.10 107.00 6.10ZM107.17 13.13L107.17 13.13L107.17 13.13Q106.42 13.13 105.81 12.88L105.81 12.88L105.81 12.88Q105.21 12.62 104.79 12.13L104.79 12.13L104.79 12.13Q104.37 11.63 104.15 10.92L104.15 10.92L104.15 10.92Q103.93 10.21 103.93 9.30L103.93 9.30L103.93 9.30Q103.93 7.33 104.73 6.34L104.73 6.34L104.73 6.34Q105.54 5.35 107.03 5.35L107.03 5.35L107.03 5.35Q107.71 5.35 108.25 5.56L108.25 5.56L108.25 5.56Q108.79 5.78 109.16 6.20L109.16 6.20L109.16 6.20Q109.54 6.62 109.74 7.24L109.74 7.24L109.74 7.24Q109.94 7.87 109.94 8.70L109.94 8.70L109.94 9.34L105.28 9.34L105.28 9.34Q105.29 10.10 105.43 10.65L105.43 10.65L105.43 10.65Q105.57 11.20 105.84 11.56L105.84 11.56L105.84 11.56Q106.10 11.92 106.48 12.08L106.48 12.08L106.48 12.08Q106.87 12.25 107.37 12.25L107.37 12.25L107.37 12.25Q107.73 12.25 108.04 12.17L108.04 12.17L108.04 12.17Q108.35 12.09 108.60 11.95L108.60 11.95L108.60 11.95Q108.86 11.81 109.05 11.64L109.05 11.64L109.05 11.64Q109.25 11.46 109.37 11.27L109.37 11.27L109.37 11.27Q109.46 11.31 109.55 11.44L109.55 11.44L109.55 11.44Q109.63 11.57 109.63 11.75L109.63 11.75L109.63 11.75Q109.63 11.96 109.48 12.21L109.48 12.21L109.48 12.21Q109.33 12.45 109.03 12.65L109.03 12.65L109.03 12.65Q108.72 12.86 108.26 13.00L108.26 13.00L108.26 13.00Q107.80 13.13 107.17 13.13ZM115.15 12.41L115.15 13.00L111.11 13.00L111.11 12.41L111.15 12.41L111.15 12.41Q111.39 12.41 111.60 12.37L111.60 12.37L111.60 12.37Q111.81 12.34 111.96 12.23L111.96 12.23L111.96 12.23Q112.12 12.13 112.21 11.93L112.21 11.93L112.21 11.93Q112.30 11.73 112.30 11.40L112.30 11.40L112.30 7.03L112.30 7.03Q112.30 6.73 112.21 6.54L112.21 6.54L112.21 6.54Q112.12 6.35 111.96 6.25L111.96 6.25L111.96 6.25Q111.80 6.15 111.59 6.11L111.59 6.11L111.59 6.11Q111.38 6.08 111.15 6.08L111.15 6.08L111.11 6.08L111.11 5.49L113.26 5.49L113.53 6.88L113.60 6.88L113.60 6.88Q113.74 6.56 113.88 6.29L113.88 6.29L113.88 6.29Q114.02 6.01 114.23 5.80L114.23 5.80L114.23 5.80Q114.44 5.59 114.75 5.47L114.75 5.47L114.75 5.47Q115.06 5.35 115.52 5.35L115.52 5.35L115.52 5.35Q116.29 5.35 116.66 5.62L116.66 5.62L116.66 5.62Q117.03 5.89 117.03 6.37L117.03 6.37L117.03 6.37Q117.03 6.59 116.96 6.77L116.96 6.77L116.96 6.77Q116.89 6.96 116.73 7.09L116.73 7.09L116.73 7.09Q116.57 7.23 116.33 7.30L116.33 7.30L116.33 7.30Q116.08 7.37 115.73 7.37L115.73 7.37L115.73 7.37Q115.73 6.79 115.56 6.53L115.56 6.53L115.56 6.53Q115.40 6.28 114.99 6.28L114.99 6.28L114.99 6.28Q114.73 6.28 114.52 6.42L114.52 6.42L114.52 6.42Q114.32 6.57 114.16 6.81L114.16 6.81L114.16 6.81Q114.01 7.05 113.90 7.37L113.90 7.37L113.90 7.37Q113.80 7.68 113.73 8.02L113.73 8.02L113.73 8.02Q113.67 8.35 113.64 8.67L113.64 8.67L113.64 8.67Q113.61 9.00 113.61 9.27L113.61 9.27L113.61 11.47L113.61 11.47Q113.61 11.78 113.71 11.97L113.71 11.97L113.71 11.97Q113.80 12.15 113.96 12.25L113.96 12.25L113.96 12.25Q114.11 12.35 114.32 12.38L114.32 12.38L114.32 12.38Q114.53 12.41 114.76 12.41L114.76 12.41L115.15 12.41Z"></path></g><!----><g data-v-423bf9ae="" id="6a02cce8-6259-4572-b02e-c4224a06c91c" transform="matrix(1.1376277208328247,0,0,1.1376277208328247,-43.247413635253906,-36.46519470214844)" stroke="none" fill="white"><path d="M38.709 32.444l.098 70.352c0 4.83 3.93 8.76 8.76 8.76h48.951c4.83 0 8.76-3.93 8.76-8.756l.096-70.355H38.709zm60.657 6l-.027 20.009c-1.357-.397-2.478-.932-3.675-1.506-2.707-1.299-5.775-2.772-11.618-2.772s-8.911 1.473-11.618 2.772c-2.438 1.17-4.545 2.181-9.021 2.181-4.476 0-6.581-1.011-9.019-2.181-2.385-1.145-5.052-2.422-9.647-2.711l-.021-15.792h54.646zM51.875 89.511l7.186-7.185a1.607 1.607 0 0 1 2.27 0l7.186 7.185a1.607 1.607 0 0 1 0 2.269l-7.186 7.186a1.608 1.608 0 0 1-2.27 0l-7.186-7.186a1.607 1.607 0 0 1 0-2.269zM74.67 79.208l7.186-7.186a1.608 1.608 0 0 1 2.27 0l7.184 7.186a1.604 1.604 0 0 1 0 2.269l-7.184 7.185a1.607 1.607 0 0 1-2.27 0l-7.186-7.185a1.607 1.607 0 0 1 0-2.269z"></path></g><!----></svg>